<?xml version="1.0" encoding="utf-8"?>
<!-- Generator: Adobe Illustrator 18.0.0, SVG Export Plug-In . SVG Version: 6.00 Build 0)  -->
<!DOCTYPE svg PUBLIC "-//W3C//DTD SVG 1.1//EN" "http://www.w3.org/Graphics/SVG/1.1/DTD/svg11.dtd">
<svg version="1.1" id="Layer_1" xmlns="http://www.w3.org/2000/svg" xmlns:xlink="http://www.w3.org/1999/xlink" x="0px" y="0px"
	 viewBox="0 0 1900 620" enable-background="new 0 0 1900 620" xml:space="preserve">
<g>
	<g>
		<defs>
			<rect id="SVGID_1_" x="550" y="-90" width="800" height="800"/>
		</defs>
		<clipPath id="SVGID_2_">
			<use xlink:href="#SVGID_1_"  overflow="visible"/>
		</clipPath>
		<g opacity="0.7" clip-path="url(#SVGID_2_)">
			<g>
				<defs>
					<rect id="SVGID_3_" x="609.6" y="424.6" width="778.4" height="115.5"/>
				</defs>
				<clipPath id="SVGID_4_">
					<use xlink:href="#SVGID_3_"  overflow="visible"/>
				</clipPath>
				<g clip-path="url(#SVGID_4_)">
					<defs>
						<rect id="SVGID_5_" x="609.6" y="424.6" width="778.4" height="115.5"/>
					</defs>
					<clipPath id="SVGID_6_">
						<use xlink:href="#SVGID_5_"  overflow="visible"/>
					</clipPath>
					<defs>
						<filter id="Adobe_OpacityMaskFilter" filterUnits="userSpaceOnUse" x="609.6" y="424.6" width="778.4" height="115.5">
							<feColorMatrix  type="matrix" values="1 0 0 0 0  0 1 0 0 0  0 0 1 0 0  0 0 0 1 0"/>
						</filter>
					</defs>
					<mask maskUnits="userSpaceOnUse" x="609.6" y="424.6" width="778.4" height="115.5" id="SVGID_7_">
						<g filter="url(#Adobe_OpacityMaskFilter)">
							
								<radialGradient id="SVGID_8_" cx="549.9988" cy="710.0131" r="1.0003" gradientTransform="matrix(277.874 0 0 -25.0098 -151831.5469 18239.6191)" gradientUnits="userSpaceOnUse">
								<stop  offset="0" style="stop-color:#FFFFFF"/>
								<stop  offset="0.9718" style="stop-color:#000000"/>
								<stop  offset="1" style="stop-color:#000000"/>
							</radialGradient>
							<rect x="609.6" y="424.6" clip-path="url(#SVGID_6_)" fill="url(#SVGID_8_)" width="778.4" height="115.5"/>
						</g>
					</mask>
					
						<radialGradient id="SVGID_9_" cx="549.9997" cy="710.0183" r="1.0002" gradientTransform="matrix(277.874 0 0 -25.0098 -151831.7969 18239.75)" gradientUnits="userSpaceOnUse">
						<stop  offset="0" style="stop-color:#909295"/>
						<stop  offset="0.9718" style="stop-color:#FFFFFF"/>
						<stop  offset="1" style="stop-color:#FFFFFF"/>
					</radialGradient>
					
						<rect x="609.6" y="424.6" clip-path="url(#SVGID_6_)" mask="url(#SVGID_7_)" fill="url(#SVGID_9_)" width="778.4" height="115.5"/>
				</g>
			</g>
		</g>
	</g>
	<polygon fill="#DC2A25" points="649.6,441.8 567.9,441.5 748.4,146.7 829.5,147 	"/>
	<polygon fill="#B9BBBD" points="882.2,293.3 963.8,293.3 901,188.6 819.8,187.4 	"/>
	<g>
		<path fill="#231F20" d="M727.6,434.6c0.1,0,0.2,0.1,0.4,0.2l0.8,0.8c-1.1,1.1-2.2,2-3.4,2.9c-1.2,0.9-2.6,1.6-4,2.2
			c-1.5,0.6-3.1,1.1-4.8,1.5c-1.7,0.3-3.7,0.5-5.7,0.5c-3.4,0-6.6-0.6-9.5-1.8s-5.4-2.9-7.5-5.2c-2.1-2.2-3.7-5-4.9-8.1
			c-1.2-3.2-1.8-6.8-1.8-10.7c0-3.9,0.6-7.4,1.8-10.6c1.2-3.2,2.8-5.9,5-8.2c2.1-2.3,4.7-4,7.7-5.3c3-1.2,6.3-1.9,9.9-1.9
			c3.4,0,6.4,0.5,9,1.5c2.6,1,5,2.5,7.3,4.5l-0.5,0.8c-0.1,0.2-0.3,0.3-0.6,0.3c-0.1,0-0.4-0.1-0.7-0.4c-0.3-0.3-0.8-0.6-1.4-1
			c-0.6-0.4-1.2-0.8-2.1-1.3c-0.8-0.5-1.7-0.9-2.8-1.3c-1.1-0.4-2.3-0.7-3.7-1c-1.4-0.3-2.9-0.4-4.5-0.4c-3.3,0-6.3,0.6-9,1.7
			c-2.7,1.1-5.1,2.7-7,4.8c-2,2.1-3.5,4.6-4.6,7.6c-1.1,3-1.6,6.3-1.6,10.1c0,3.8,0.5,7.2,1.6,10.2c1.1,3,2.6,5.5,4.5,7.6
			c1.9,2.1,4.2,3.7,6.9,4.8c2.6,1.1,5.5,1.7,8.6,1.7c1.9,0,3.7-0.1,5.2-0.4c1.5-0.3,2.9-0.7,4.2-1.2c1.3-0.5,2.5-1.2,3.6-1.9
			c1.1-0.8,2.2-1.6,3.3-2.6C727.3,434.6,727.5,434.6,727.6,434.6z"/>
		<path fill="#231F20" d="M767.3,391.5v1.7h-27.9v22.4h23.5v1.7h-23.5v23.1h27.9l-0.1,1.7h-29.8v-50.6H767.3z"/>
		<path fill="#231F20" d="M779.2,440.4h25.1v1.7h-27v-50.6h2V440.4z"/>
		<path fill="#231F20" d="M813.2,440.4h25.1v1.7h-27v-50.6h2V440.4z"/>
		<path fill="#231F20" d="M865.3,420.9v21.1h-2v-50.6h12.1c5.7,0,10,1.2,13,3.7c3,2.4,4.4,6.1,4.4,11c0,2.1-0.4,4.1-1.2,5.9
			c-0.8,1.8-2,3.4-3.5,4.7c-1.5,1.3-3.4,2.3-5.5,3.1c-2.1,0.7-4.5,1.1-7.1,1.1H865.3z M865.3,419.3h10.1c2.4,0,4.5-0.3,6.4-1
			c1.9-0.7,3.5-1.6,4.9-2.8c1.3-1.2,2.4-2.6,3.1-4.2c0.7-1.6,1.1-3.3,1.1-5.2c0-4.3-1.3-7.5-3.8-9.7c-2.6-2.2-6.4-3.3-11.6-3.3
			h-10.1V419.3z"/>
		<path fill="#231F20" d="M940,442.1h-2v-24.8h-34v24.8h-2v-50.6h2v24.1h34v-24.1h2V442.1z"/>
		<path fill="#231F20" d="M997.9,416.8c0,4-0.6,7.5-1.7,10.7c-1.2,3.2-2.8,5.9-4.9,8.1c-2.1,2.2-4.6,4-7.5,5.2
			c-2.9,1.2-6.1,1.8-9.6,1.8c-3.5,0-6.7-0.6-9.6-1.8c-2.9-1.2-5.4-2.9-7.5-5.2c-2.1-2.2-3.7-5-4.9-8.1c-1.2-3.2-1.7-6.7-1.7-10.7
			c0-3.9,0.6-7.5,1.7-10.7c1.2-3.2,2.8-5.9,4.9-8.1c2.1-2.2,4.6-4,7.5-5.2c2.9-1.2,6.1-1.8,9.6-1.8c3.5,0,6.7,0.6,9.6,1.8
			c2.9,1.2,5.4,2.9,7.5,5.2s3.7,5,4.9,8.1C997.3,409.3,997.9,412.8,997.9,416.8z M995.8,416.8c0-3.8-0.5-7.1-1.6-10.1
			c-1-3-2.5-5.5-4.4-7.6c-1.9-2.1-4.2-3.7-6.8-4.8c-2.6-1.1-5.6-1.7-8.8-1.7c-3.2,0-6.1,0.6-8.7,1.7c-2.6,1.1-4.9,2.7-6.8,4.8
			s-3.4,4.6-4.5,7.6c-1.1,3-1.6,6.4-1.6,10.1s0.5,7.1,1.6,10.1c1.1,3,2.6,5.5,4.5,7.6c1.9,2.1,4.2,3.6,6.8,4.7
			c2.6,1.1,5.6,1.7,8.7,1.7c3.2,0,6.1-0.6,8.8-1.7c2.6-1.1,4.9-2.7,6.8-4.7c1.9-2.1,3.4-4.6,4.4-7.6
			C995.3,423.9,995.8,420.6,995.8,416.8z"/>
		<path fill="#231F20" d="M1009.8,391.6c0.1,0.1,0.3,0.2,0.4,0.4l34.5,46.7c0-0.2,0-0.4,0-0.6c0-0.2,0-0.4,0-0.6v-45.9h1.7v50.6
			h-0.8c-0.3,0-0.6-0.1-0.8-0.4l-34.7-46.9c0,0.2,0,0.5,0.1,0.7s0,0.4,0,0.6v46h-1.7v-50.6h0.9
			C1009.5,391.5,1009.7,391.5,1009.8,391.6z"/>
		<path fill="#231F20" d="M1090.2,391.5v1.7h-27.9v22.4h23.5v1.7h-23.5v23.1h27.9l-0.1,1.7h-29.8v-50.6H1090.2z"/>
		<path fill="#231F20" d="M1120.1,418.3v23.8h-2v-50.6h12.2c5.5,0,9.7,1.1,12.5,3.2c2.9,2.1,4.3,5.4,4.3,9.7c0,2-0.4,3.8-1.1,5.4
			c-0.7,1.6-1.8,3-3.1,4.2c-1.3,1.2-3,2.1-4.9,2.8c-1.9,0.7-4,1.1-6.4,1.3c0.4,0.2,0.9,0.6,1.3,1.1l18.8,22.8h-1.6
			c-0.3,0-0.5,0-0.7-0.1c-0.2-0.1-0.4-0.2-0.6-0.5l-17.8-21.8c-0.2-0.3-0.4-0.5-0.6-0.6c-0.2-0.2-0.4-0.3-0.7-0.4
			c-0.3-0.1-0.6-0.2-0.9-0.2c-0.3,0-0.8-0.1-1.3-0.1H1120.1z M1120.1,416.8h9.6c2.4,0,4.5-0.3,6.4-0.8c1.9-0.6,3.5-1.4,4.9-2.4
			c1.3-1.1,2.3-2.4,3.1-3.9c0.7-1.5,1.1-3.2,1.1-5.1c0-3.9-1.3-6.8-3.8-8.6c-2.5-1.8-6.2-2.8-11-2.8h-10.2V416.8z"/>
		<path fill="#231F20" d="M1188.8,391.5v1.7H1161v22.4h23.5v1.7H1161v23.1h27.9l-0.1,1.7H1159v-50.6H1188.8z"/>
		<path fill="#231F20" d="M1200.7,420.9v21.1h-2v-50.6h12.1c5.7,0,10,1.2,13,3.7c3,2.4,4.4,6.1,4.4,11c0,2.1-0.4,4.1-1.2,5.9
			c-0.8,1.8-2,3.4-3.5,4.7c-1.5,1.3-3.4,2.3-5.5,3.1c-2.1,0.7-4.5,1.1-7.1,1.1H1200.7z M1200.7,419.3h10.1c2.4,0,4.5-0.3,6.4-1
			c1.9-0.7,3.5-1.6,4.9-2.8c1.3-1.2,2.4-2.6,3.1-4.2c0.7-1.6,1.1-3.3,1.1-5.2c0-4.3-1.3-7.5-3.8-9.7c-2.6-2.2-6.4-3.3-11.6-3.3
			h-10.1V419.3z"/>
		<path fill="#231F20" d="M1274.4,442.1h-1.5c-0.4,0-0.6-0.2-0.8-0.6l-6.6-16h-26l-6.6,16c-0.1,0.4-0.4,0.6-0.8,0.6h-1.5l20.9-50.6
			h1.9L1274.4,442.1z M1240.2,424h24.7l-11.6-28.2c-0.1-0.3-0.2-0.7-0.4-1c-0.1-0.3-0.3-0.7-0.4-1.1c-0.1,0.4-0.2,0.8-0.4,1.1
			c-0.1,0.3-0.3,0.7-0.4,1L1240.2,424z"/>
		<path fill="#231F20" d="M1283.6,442.1h-2v-50.6h2V442.1z"/>
		<path fill="#231F20" d="M1299.5,418.3v23.8h-2v-50.6h12.2c5.5,0,9.7,1.1,12.5,3.2c2.9,2.1,4.3,5.4,4.3,9.7c0,2-0.4,3.8-1.1,5.4
			c-0.7,1.6-1.8,3-3.1,4.2c-1.3,1.2-3,2.1-4.9,2.8c-1.9,0.7-4,1.1-6.4,1.3c0.4,0.2,0.9,0.6,1.3,1.1l18.8,22.8h-1.6
			c-0.3,0-0.5,0-0.7-0.1c-0.2-0.1-0.4-0.2-0.6-0.5l-17.8-21.8c-0.2-0.3-0.4-0.5-0.6-0.6c-0.2-0.2-0.4-0.3-0.7-0.4
			c-0.3-0.1-0.6-0.2-0.9-0.2c-0.3,0-0.8-0.1-1.3-0.1H1299.5z M1299.5,416.8h9.6c2.4,0,4.5-0.3,6.4-0.8c1.9-0.6,3.5-1.4,4.9-2.4
			c1.3-1.1,2.3-2.4,3.1-3.9c0.7-1.5,1.1-3.2,1.1-5.1c0-3.9-1.3-6.8-3.8-8.6c-2.5-1.8-6.2-2.8-11-2.8h-10.2V416.8z"/>
	</g>
	<g>
		<path fill="#231F20" d="M905.4,340.3c0,4.5-0.8,8.6-2.3,12.4c-1.5,3.8-3.7,7.1-6.5,9.8s-6.2,4.9-10.1,6.5c-4,1.5-8.3,2.3-13.2,2.3
			h-24.1v-61.9h24.1c4.8,0,9.2,0.8,13.2,2.3c4,1.6,7.3,3.7,10.1,6.5s5,6,6.5,9.8C904.7,331.8,905.4,335.9,905.4,340.3z M890.7,340.3
			c0-3.1-0.4-5.8-1.2-8.3c-0.8-2.5-1.9-4.6-3.4-6.3c-1.5-1.7-3.3-3-5.5-4c-2.2-0.9-4.6-1.4-7.4-1.4h-9.6v39.8h9.6
			c2.7,0,5.2-0.5,7.4-1.4c2.2-0.9,4-2.2,5.5-4c1.5-1.7,2.6-3.8,3.4-6.3C890.3,346.2,890.7,343.4,890.7,340.3z"/>
		<path fill="#231F20" d="M969.5,371.3h-11.1c-1.2,0-2.3-0.3-3-0.9s-1.3-1.3-1.7-2.2l-3.7-10.8h-23.5l-3.7,10.8
			c-0.3,0.8-0.9,1.5-1.7,2.1s-1.8,1-3,1h-11.2l24-61.9h14.7L969.5,371.3z M929.7,347.7h16.9l-5.7-17c-0.4-1.1-0.9-2.3-1.4-3.8
			c-0.5-1.5-1-3-1.4-4.7c-0.5,1.7-0.9,3.3-1.4,4.8c-0.5,1.5-0.9,2.7-1.3,3.8L929.7,347.7z"/>
		<path fill="#231F20" d="M983.5,309.5c0.4,0.1,0.8,0.2,1.1,0.3c0.3,0.2,0.7,0.4,1,0.7c0.3,0.3,0.7,0.7,1.1,1.1l29.4,37.2
			c-0.1-1.2-0.2-2.3-0.3-3.5s-0.1-2.2-0.1-3.2v-32.8h12.7v61.9h-7.5c-1.1,0-2-0.2-2.8-0.5c-0.8-0.4-1.5-1-2.2-1.8l-29.2-36.9
			c0.1,1.1,0.2,2.1,0.2,3.2c0.1,1,0.1,2,0.1,2.9v33.2h-12.7v-61.9h7.6C982.5,309.4,983.1,309.4,983.5,309.5z"/>
		<path fill="#231F20" d="M1049.5,309.5c0.4,0.1,0.8,0.2,1.1,0.3c0.3,0.2,0.7,0.4,1,0.7c0.3,0.3,0.7,0.7,1.1,1.1l29.4,37.2
			c-0.1-1.2-0.2-2.3-0.3-3.5s-0.1-2.2-0.1-3.2v-32.8h12.7v61.9h-7.5c-1.1,0-2-0.2-2.8-0.5c-0.8-0.4-1.5-1-2.2-1.8l-29.2-36.9
			c0.1,1.1,0.2,2.1,0.2,3.2c0.1,1,0.1,2,0.1,2.9v33.2h-12.7v-61.9h7.6C1048.6,309.4,1049.1,309.4,1049.5,309.5z"/>
		<path fill="#231F20" d="M1136.1,347.8v23.5h-14.4v-23.5l-22.4-38.4h12.7c1.2,0,2.2,0.3,3,0.9c0.7,0.6,1.3,1.3,1.8,2.2l8.8,18
			c0.7,1.4,1.4,2.7,2,4c0.6,1.2,1.1,2.4,1.6,3.6c0.4-1.2,0.9-2.4,1.5-3.7c0.6-1.2,1.2-2.5,2-3.9l8.7-18c0.2-0.4,0.4-0.7,0.7-1.1
			c0.3-0.4,0.6-0.7,1-1c0.4-0.3,0.8-0.5,1.3-0.7c0.5-0.2,1-0.3,1.6-0.3h12.8L1136.1,347.8z"/>
	</g>
	<polygon fill="#ED2A27" points="789,371.8 707.4,371.8 820,187.4 901.1,188.7 	"/>
	<polygon fill="#ED2A27" points="963,292.8 881.4,292.8 946,187.4 1027.1,188.7 	"/>
	<polygon fill="#231F20" points="670,254.8 606.7,354.8 606.7,147.1 670,147.1 	"/>
	<polygon fill="#B9BBBD" points="828,143.3 606,143.3 606,111.3 789,111.3 	"/>
	<polygon fill="#B9BBBD" points="1008.2,293.3 1089.8,293.3 1027,188.6 945.8,187.4 	"/>
</g>
</svg>
